<svg xmlns="http://www.w3.org/2000/svg" width="640" height="480" viewBox="0 0 640 480">
  <defs><linearGradient id="sw" gradientUnits="userSpaceOnUse" x1="0" y1="0" x2="0" y2="1120"><stop offset="0" stop-color="#3fb8a0"/><stop offset="0.55" stop-color="#3fb8a0"/><stop offset="1" stop-color="#ff8c69"/></linearGradient></defs>
  <rect width="640" height="480" fill="#16171a"/>
  <g transform="translate(236.0 84)"><defs><clipPath id="isq"><rect width="168" height="168" rx="36.750"/></clipPath><linearGradient id="isg" gradientUnits="userSpaceOnUse" x1="0" y1="0" x2="0" y2="1120"><stop offset="0" stop-color="#3fb8a0"/><stop offset="0.55" stop-color="#3fb8a0"/><stop offset="1" stop-color="#ff8c69"/></linearGradient></defs>
  <g clip-path="url(#isq)">
    <rect width="168" height="168" fill="#16171a"/>
    <g transform="translate(9.703 107.377) scale(0.06286 -0.06286)"><path d="M302 1120H469L487 901Q534 1020 628.5 1083.5Q723 1147 855 1147Q993 1147 1095 1077V889Q987 977 839 977Q669 977 578.0 868.5Q487 760 487 557V0H302Z" fill="#ececea"/><g transform="translate(1032.000 0)"><path d="M589 -29Q429 -29 213 41V231Q423 125 587 125Q704 125 774.0 174.0Q844 223 844 305Q844 376 785.5 419.5Q727 463 599 490L522 506Q364 538 290.5 611.5Q217 685 217 812Q217 973 327.0 1060.0Q437 1147 640 1147Q812 1147 973 1081V901Q816 993 645 993Q403 993 403 828Q403 774 424.0 742.5Q445 711 504.0 689.5Q563 668 678 645L752 631Q1030 576 1030 328Q1030 162 912.0 66.5Q794 -29 589 -29Z" fill="url(#isg)"/></g></g>
    <path d="M11.8 139.4 L13.6 140.4 L15.4 141.3 L17.2 142.2 L19.0 143.0 L20.8 143.7 L22.6 144.3 L24.4 144.8 L26.2 145.2 L28.0 145.4 L29.8 145.5 L31.6 145.4 L33.4 145.2 L35.2 144.8 L37.0 144.3 L38.9 143.7 L40.7 143.0 L42.5 142.2 L44.3 141.3 L46.1 140.4 L47.9 139.4 L49.7 138.5 L51.5 137.6 L53.3 136.7 L55.1 135.9 L56.9 135.2 L58.7 134.5 L60.5 134.1 L62.3 133.7 L64.1 133.5 L65.9 133.4 L67.7 133.5 L69.6 133.7 L71.4 134.1 L73.2 134.5 L75.0 135.2 L76.8 135.9 L78.6 136.7 L80.4 137.6 L82.2 138.5 L84.0 139.4 L85.8 140.4 L87.6 141.3 L89.4 142.2 L91.2 143.0 L93.0 143.7 L94.8 144.3 L96.6 144.8 L98.4 145.2 L100.3 145.4 L102.1 145.5 L103.9 145.4 L105.7 145.2 L107.5 144.8 L109.3 144.3 L111.1 143.7 L112.9 143.0 L114.7 142.2 L116.5 141.3 L118.3 140.4 L120.1 139.4 L121.9 138.5 L123.7 137.6 L125.5 136.7 L127.3 135.9 L129.2 135.2 L131.0 134.5 L132.8 134.1 L134.6 133.7 L136.4 133.5 L138.2 133.4 L140.0 133.5 L141.8 133.7 L143.6 134.1 L145.4 134.5 L147.2 135.2 L149.0 135.9 L150.8 136.7 L152.6 137.6 L154.4 138.5 L156.2 139.4" fill="none" stroke="#3fb8a0" stroke-width="3.70" stroke-linecap="round"/>
  </g></g>
  <g transform="translate(158.86 360.00) scale(0.03690 -0.03690)">
    <path d="M302 1120H469L487 901Q534 1020 628.5 1083.5Q723 1147 855 1147Q993 1147 1095 1077V889Q987 977 839 977Q669 977 578.0 868.5Q487 760 487 557V0H302Z" fill="#ececea" transform="translate(0 0)"/><path d="M678 -29Q419 -29 271.5 126.5Q124 282 124 551Q124 718 182.5 853.0Q241 988 356.5 1067.5Q472 1147 642 1147Q866 1147 989.5 1003.5Q1113 860 1113 606V516H316V510Q316 335 408.0 231.0Q500 127 680 127Q784 127 881.5 160.0Q979 193 1070 240V57Q975 18 877.5 -5.5Q780 -29 678 -29ZM929 660Q929 753 901.0 828.0Q873 903 811.5 947.0Q750 991 649 991Q547 991 478.5 946.5Q410 902 371.5 827.0Q333 752 323 660Z" fill="#ececea" transform="translate(1233 0)"/><path d="M807 -4Q601 -4 515.5 79.5Q430 163 430 365V977H131V1120H430V1413L614 1493V1120H1032V977H614V365Q614 242 661.0 192.5Q708 143 825 143H1032V-4Z" fill="#ececea" transform="translate(2466 0)"/><path d="M589 -29Q429 -29 213 41V231Q423 125 587 125Q704 125 774.0 174.0Q844 223 844 305Q844 376 785.5 419.5Q727 463 599 490L522 506Q364 538 290.5 611.5Q217 685 217 812Q217 973 327.0 1060.0Q437 1147 640 1147Q812 1147 973 1081V901Q816 993 645 993Q403 993 403 828Q403 774 424.0 742.5Q445 711 504.0 689.5Q563 668 678 645L752 631Q1030 576 1030 328Q1030 162 912.0 66.5Q794 -29 589 -29Z" fill="url(#sw)" transform="translate(3699 0)"/><path d="M536 -29Q195 -29 195 424V1118H379V424Q379 131 598 131Q726 131 796.0 223.5Q866 316 866 485V1118H1051V0H884L866 168Q766 -29 536 -29Z" fill="url(#sw)" transform="translate(4932 0)"/><path d="M302 1120H469L487 901Q534 1020 628.5 1083.5Q723 1147 855 1147Q993 1147 1095 1077V889Q987 977 839 977Q669 977 578.0 868.5Q487 760 487 557V0H302Z" fill="url(#sw)" transform="translate(6165 0)"/><path d="M466 977H167V1120H466V1198Q466 1382 550.5 1469.0Q635 1556 814 1556H1035V1403H826Q728 1403 689.0 1362.5Q650 1322 650 1219V1120H1035V977H650V0H466Z" fill="url(#sw)" transform="translate(7398 0)"/>
  </g>
  <text x="320.0" y="412" text-anchor="middle" font-family="sans-serif"
        font-size="19" letter-spacing="1.5" fill="#8a8f98">gamepad-native web browser</text>
</svg>
