<svg xmlns="http://www.w3.org/2000/svg" width="512" height="512" viewBox="0 0 512 512">
  <defs><clipPath id="isq"><rect width="512" height="512" rx="112.000"/></clipPath><linearGradient id="isg" gradientUnits="userSpaceOnUse" x1="0" y1="0" x2="0" y2="1120"><stop offset="0" stop-color="#3fb8a0"/><stop offset="0.55" stop-color="#3fb8a0"/><stop offset="1" stop-color="#ff8c69"/></linearGradient></defs>
  <g clip-path="url(#isq)">
    <rect width="512" height="512" fill="#16171a"/>
    <g transform="translate(29.571 327.245) scale(0.19156 -0.19156)"><path d="M302 1120H469L487 901Q534 1020 628.5 1083.5Q723 1147 855 1147Q993 1147 1095 1077V889Q987 977 839 977Q669 977 578.0 868.5Q487 760 487 557V0H302Z" fill="#ececea"/><g transform="translate(1032.000 0)"><path d="M589 -29Q429 -29 213 41V231Q423 125 587 125Q704 125 774.0 174.0Q844 223 844 305Q844 376 785.5 419.5Q727 463 599 490L522 506Q364 538 290.5 611.5Q217 685 217 812Q217 973 327.0 1060.0Q437 1147 640 1147Q812 1147 973 1081V901Q816 993 645 993Q403 993 403 828Q403 774 424.0 742.5Q445 711 504.0 689.5Q563 668 678 645L752 631Q1030 576 1030 328Q1030 162 912.0 66.5Q794 -29 589 -29Z" fill="url(#isg)"/></g></g>
    <path d="M35.8 425.0 L41.3 427.8 L46.8 430.7 L52.4 433.3 L57.9 435.8 L63.4 438.0 L68.9 439.9 L74.4 441.4 L79.9 442.5 L85.4 443.2 L90.9 443.4 L96.4 443.2 L101.9 442.5 L107.4 441.4 L112.9 439.9 L118.4 438.0 L123.9 435.8 L129.4 433.3 L134.9 430.7 L140.4 427.8 L145.9 425.0 L151.4 422.1 L156.9 419.3 L162.4 416.6 L167.9 414.1 L173.4 411.9 L178.9 410.0 L184.4 408.5 L190.0 407.4 L195.5 406.8 L201.0 406.5 L206.5 406.8 L212.0 407.4 L217.5 408.5 L223.0 410.0 L228.5 411.9 L234.0 414.1 L239.5 416.6 L245.0 419.3 L250.5 422.1 L256.0 425.0 L261.5 427.8 L267.0 430.7 L272.5 433.3 L278.0 435.8 L283.5 438.0 L289.0 439.9 L294.5 441.4 L300.0 442.5 L305.5 443.2 L311.0 443.4 L316.5 443.2 L322.0 442.5 L327.6 441.4 L333.1 439.9 L338.6 438.0 L344.1 435.8 L349.6 433.3 L355.1 430.7 L360.6 427.8 L366.1 425.0 L371.6 422.1 L377.1 419.3 L382.6 416.6 L388.1 414.1 L393.6 411.9 L399.1 410.0 L404.6 408.5 L410.1 407.4 L415.6 406.8 L421.1 406.5 L426.6 406.8 L432.1 407.4 L437.6 408.5 L443.1 410.0 L448.6 411.9 L454.1 414.1 L459.6 416.6 L465.2 419.3 L470.7 422.1 L476.2 425.0" fill="none" stroke="#3fb8a0" stroke-width="11.26" stroke-linecap="round"/>
  </g>
</svg>
